<svg id="visual" viewBox="0 0 900 900" width="900" height="900" xmlns="http://www.w3.org/2000/svg" xmlns:xlink="http://www.w3.org/1999/xlink" version="1.1"><rect x="0" y="0" width="900" height="900" fill="#931C1C"></rect><path d="M0 615L129 583L257 478L386 597L514 469L643 624L771 590L900 511L900 901L771 901L643 901L514 901L386 901L257 901L129 901L0 901Z" fill="#f5730a"></path><path d="M0 585L129 551L257 529L386 551L514 529L643 539L771 540L900 681L900 901L771 901L643 901L514 901L386 901L257 901L129 901L0 901Z" fill="#da5b09"></path><path d="M0 670L129 717L257 631L386 695L514 619L643 614L771 741L900 671L900 901L771 901L643 901L514 901L386 901L257 901L129 901L0 901Z" fill="#be4407"></path><path d="M0 728L129 741L257 789L386 706L514 779L643 760L771 747L900 727L900 901L771 901L643 901L514 901L386 901L257 901L129 901L0 901Z" fill="#a32d04"></path><path d="M0 768L129 818L257 778L386 824L514 765L643 844L771 818L900 817L900 901L771 901L643 901L514 901L386 901L257 901L129 901L0 901Z" fill="#871400"></path></svg>